# xmcd
#
# Track frame offsets:
#	150
#	19868
#	41341
#	57037
#	72772
#	88047
#	111908
#	136580
#	155196
#	159989
#	175812
#	180389
#	201996
#	224129
#	235146
#	248761
#	267364
#
# Disc length: 4012 seconds
#
# Revision: 1
# Processed by: cddbd v1.4PL0 Copyright (c) Steve Scherf et al.
# Submitted via: audiograbber 1.80
#
DISCID=ea0faa11
DTITLE=Various Artist - Sexy - #1
DYEAR=1900
DGENRE=
TTITLE0=Chakachas - Jungle Fever
TTITLE1=Rare earth - Come with me
TTITLE2=Army of lovers - My army of lovers
TTITLE3=5.000 Volts - Doctor Kiss Kiss
TTITLE4=Donna Summer - Love to love you baby
TTITLE5=James Brown - Sex Machine
TTITLE6=Fourplay - sexual healing
TTITLE7=Color me bad - I wanna sex you up
TTITLE8=Miss Jones - You and me (Intro)
TTITLE9=Miss Jones - You and me
TTITLE10=Foxy Brown - Bomb Ass
TTITLE11=Monifah - Touch it
TTITLE12=LL Cool J - Doin' it
TTITLE13=The Lilac Time - Night Mail - Dirty Armour
TTITLE14=Dr. Hook - Body Talking
TTITLE15=Latour - Blue
TTITLE16=Armand Van Helden - Entra Mi Casa feat. AMITI
EXTD=
EXTT0=
EXTT1=
EXTT2=
EXTT3=
EXTT4=
EXTT5=
EXTT6=
EXTT7=
EXTT8=
EXTT9=
EXTT10=
EXTT11=
EXTT12=
EXTT13=
EXTT14=
EXTT15=
EXTT16=
PLAYORDER=
